/* XPM */
static char *_6d333c7b66242aa82011dd5134c2e0bK4DKzxhgx34G2p3f[] = {
/* columns rows colors chars-per-pixel */
"64 64 9 1 ",
"  c #672F1A",
". c #7E7E7E",
"X c #813B21",
"o c #874229",
"O c #964D32",
"+ c #905038",
"@ c #E3A000",
"# c #ECC873",
"$ c gray75",
/* pixels */
"                                                                ",
" ++++  +++  +++++++  +++  ++++++++++  ++++  ++++++++  ++++  +++ ",
" ++++  +o+  +++o++o  +++  +++oo+++o+  ++o+  +o++++o+  o++o  ++o ",
" +o++  +o+  ++oo++o  +++  +++oo+++o+  ++o+  +o+++oo+  +o+o  ++o ",
" +oo+  +o+  ++oo++o  +o+  +++oo++oo+  ++o+  +o+++o++  +++o  +oo ",
" +oo+  ++o  +ooo+++  +o+  +++o+++oo+  ++o+  +o+++oo+  +++o  +oo ",
" +oo+  ++o  +ooo+++  +o+  ++oo+++oo+  +oo+  +oo+ooo+  +o+o  ++o ",
" ++++  ++o  ++oo+++  +o+  ++oo+++o++  +o++  ++o+ooo+  +o+o  +oo ",
" +o++  ++o  ++oo+++  +o+  ++oo+++o++  +oo+  ++o+oo++  +oo+  +oo ",
" ++++  +++  +++o+++  +o+  ++o++++o++  ++++  ++++oo++  ++o+  ++o ",
" ++++  +++  +++++++  +++  ++++++++++  ++++  ++++++++  ++++  +++ ",
"                                                                ",
"                                                                ",
" ++++++++++++++++++++++++++++++++++++++++++++++++++++++++++++++ ",
" +ooooo$$o+++++++++++$.++++++++++++++++$.+++++++++ooooo$.ooo+++ ",
" +oooo+..+++++ooooooo..oo+++++ooooo++++..++oooooooooooo..oooo++ ",
" +++++++++++oooooo+++++++++++++++o+++++++++++++++++++++++++++++ ",
" ++++++++++++++++++++++++++++++++++++++++++++++++++++++++++++++ ",
"                                                                ",
"                                                                ",
" XXXX  XXX  XXXXXXX  XXX  XXXXXXXXXX  XXXX  XXXXXXXX  XXXX  XXX ",
" XXXX  XXX  XXXXXXX  XXX  XXXXXXXXXX  XXXX  XXXXXXXX  XXXX  XXX ",
" ++++  +++  +++++++  +++  ++++++++++  ++++  ++++++++  ++o+  +++ ",
" ++++  +++  ++oo+++  +++  +o++++++++  +o++  ++++++++  ++o+  ++o ",
" +o++  +++  ++oo+++  +++  +o++++oo++  +o++  +o+++o++  ++o+  ++o ",
" +oo+  +++  ++oo+++  +++  +oo+++oo++  +oo+  +o++oo++  ++o+  +o+ ",
" +oo+  +o+  ++oo+++  +++  +oo+++oo++  +oo+  +o++oo++  ++o+  +o+ ",
" +oo+  +o+  ++oo+++  +++  +oo+++oo++  +oo+  +o++oo++  +oo+  +o+ ",
" +oo+  +o+  ++oo+++  +++  +oo+++oo++  ++o+  ++++oo++  ++++  o++ ",
" +oo+  +o+  ++oo+++  +++  +oo+++oo++  ++o+  ++++oo++  ++++  o++ ",
" +oo+  ++o  ++oo+++  +++  +o++++o+++  ++o+  ++++oo++  ++++  o++ ",
" +o++  ++o  ++oo+++  +++  +o++++o+++  ++o+  ++++oo++  ++++  +++ ",
" +o++  ++o  ++oo+++  +++  +o++++o+++  ++o+  +++ooo++  ++++  ++o ",
" +o++  ++o  ++oo+++  +++  ++++++o+++  ++o+  +++ooo++ ##+++  ++o ",
" +o++  ++o  ++oo+++  +++  +++++oo+++  ++o+  +++ooo++##@@++  ++o ",
" +o++  ++o  ++oo+++  +++  +++++oo+++  ++o+  +++oo++#@@@@@+  ++o ",
" +o++  ++o  ++oo+++  +++  +++++oo+++  +oo+  ++++o++#@@@@@+  ++o ",
" +o++  +oo  ++oo+++  +++  +++++o++++  +oo+  ++++o+++@@@@++  ++o ",
" ++o+  +oo  ++o++++  +++  +++++o++++  +oo+  ++++o+++ @@+++  ++o ",
" ++o+  +oo  ++o++++  +++  ++++++++++  +oo+  ++++o+++  ++++  ++o ",
" ++o+  +oo  +++++o+  +++  ++++++++++  +oo+  ++++oo++  ++o+  ++o ",
" ++o+  +oo  +++++o+  +++  ++o+++++++  ++++  +++oo+++  ++o+  ++o ",
" ++o+  o++  +++++o+  +++  ++o+++++++  ++++  ++++o+++  +oo+  ++o ",
" ++++  +++  +++++o+  +++  ++ooo+++++  ++++  ++++++++  +oo+  ++o ",
" ++++  +++  +++++o+  +++  ++oo++++++  ++++  ++++++++  ++o+  +++ ",
" ++++  +++  +++++++  +++  ++o+++++++  ++++  ++++++++  ++++  +++ ",
"                                                                ",
"                                                                ",
" ++++++++++++++++++++++++++++++++++++++++++++++++++++++++++++++ ",
" ++++++$.++++++++++++$$+++++++++++++++oo$$ooooooooo++o+$.++++++ ",
" +++ooo..oooooooooooo..++++++++oo+++++++..+++oooooooo++..+ooooo ",
" +++oooooooooooo+++++++++++++++ooooooo++++++++++++++++++oooooo+ ",
" ++++++++++++++++++++++++++++++++++++++++++++++++++++++++++++++ ",
"                                                                ",
"                                                                ",
" XXXX  XXX  XXXXXXX  XXX  XXXXXXXXXX  XXXX  XXXXXXXX  XXXX  XXX ",
" XXXX  XXX  XXXXXXX  XXX  XXXXXXXXXX  XXXX  XXXXXXXX  XXXX  XXX ",
" +++O  +++  +++++++  +++  ++++++++++  ++++  ++++++++  ++++  +++ ",
" ++o+  +o+  ++++o++  o++  ++++o++o++  ++o+  ++o+++o+  ++o+  +++ ",
" o+o+  +++  +++oo++  o++  +++oo++o++  ++o+  ++o++oo+  ++o+  +o+ ",
" o+o+  +++  +++o+++  +oo  +++oo++o++  ++o+  ++o++oo+  +++o  +o+ ",
" ++++  +o+  +++++oo  ++o  +++o+++o++  ++o+  ++oo++o+  +++o  +o+ ",
" +ooo  oo+  ++++oo+  +++  ++++++++++  +++o  +++o++++  ++++  +o+ ",
"                                                                "
};
