/* XPM */
static char *_13db25861334b4e9bd534758e8e2a18kecf1YfeG5wNgHJ0[] = {
/* columns rows colors chars-per-pixel */
"64 64 4 1 ",
"  c #12310F",
". c #34430D",
"X c #465227",
"o c #919243",
/* pixels */
"                                                                ",
"                                               .......XXXX      ",
"                       X                 ........XXXXXXXXXXX    ",
"   ...........X     XXXXXX            .......XXXXXXXXXXXXXXXX   ",
"  ..........XXXXX   XXXXXXX           .....XXXXXXXXXXXXXXXXXX   ",
" .....XXXXXXXXXXXX  XXXXXXX           ..XXXXXXXXXXXoooooooXXX   ",
" ...XXXXXXXXXoooXXX  XXXX             .XXXXXXXXXoooooooooooXX   ",
" .XXXXXXXXXXXoooXXXX        XX.....      XXXXXXXXXXXXXXXXXXXX   ",
" XXXXXXXXXXXXXXXXXXXX      XXXXXX......         XXXXXXXXXXX     ",
" XXXXXXXXXXXXXXXXooXX    XXXXXXXX........                       ",
"  XXXXXXXXXXXXXXoooXX   XXXXXXXXXXXX.......             X       ",
"  XXXXooooooooooooXXX  XXXXXXXXXXXXXXXX.....        XXXXXXX     ",
"  XXXXooooooooooooXXX  XXXXXXXXXXXXXXXXXXXX..    XXXXXXXXXXXX   ",
"   XXXXXoooooooooXXXX XXXooXXXXXXXXXXXXXXXXX.   .XXXXXXXXooXX   ",
"     XXXXXXXXXXXXXXXX XXoooXXXXXXXXXXXXXXXXXX ..XXXXXXXXooooXX  ",
"       XXXXXXXXXXXX   XXoooXXXXXXXXXXXXXXXXXX .XXXXXXXXXooooXX  ",
"            XXXXXX    XXooooXXXXXXXXXXXXXXXX ..XXXXXXXXXXoooXX  ",
"                      XXXooooXXXXXXXXXXXXXXX ..XXXXXXXXXXXXXXX  ",
"                      XXXoooooooooooXXXXXXXX ..XXXXXXXXXXoooXX  ",
"         XXXXXX   X    XXXooooooooooooXXXXX ...XXXXXXXXXoooooXX ",
"       XXXXXXXXXXXXX    XXXXXXoooooooXXXXXX ....XXXXXXXooooooXX ",
"      XXXXXXXXXXXXXXX    XXXXXXXXXXXXXXXX    ....XXXXXoooooooXX ",
"     XXXXXXXXooooXXXXX    XXXXXXXXXXXXX      ....XXXXXooooooXX  ",
"    XXXXXXXXoooooooXXX          XXXXX        .....XXXXoooooXXX  ",
"    XXXXXXXXooooooooXXXX                     .....XXXXXooooXXX  ",
"    XXXXXXXXoooooooooXXXX      ...             ....XXXXXXXXXX   ",
"   XXXXXXXXXoooooooooXXXX     .....             .....XXXXXX     ",
"   XXXXXXXXXXXoooooooXXXX    X.XXX.       ...      ..XXXXX      ",
"   XXXXXXXXXXXXXooooXXXXXX   XXXoXX      ......                 ",
"   XXXXXXXXXXXXXXXXXXXXXXX    XXXXX     X........        X      ",
"   XXXXXXXXXXXXXXXXXXooXXX      XX     XX..........     XXXX    ",
"  .XXXXXXXXXXXXXXXXXXooXXXX            XX..........    XXXXX    ",
"  ...XXXXXXXXXXXXXXXXXXXXXX           XXXX..........   XXXXXX   ",
"  ...XXXXXXXXXXXXXXXXXXXXXX           XXXXXX...XX...  XXXXXXX   ",
"   ..XXXXXXXXXXXXXXXXXXXXX            XXXXXXXXXXXXX.  XXoXXXXX  ",
"   ...XXXXXXXXXXXXXXXXXXXX           XXXXXXXXXXXXXXX  XXooXXXX  ",
"   .....XXXXXXXXXXXXXXXXXX           XXXXXXXXXXXXXXX XXXooXXXX  ",
"   .......XXXXXXXXXXXXXXXX  XXXX     XXXooXXXXXXXXXX XXXooXXXX  ",
"    ........XXXXXXXXXXXXX  XXXXXX    XXXoooXXXXoXXXX XXXooXXXXX ",
"      .......XXXXXXXXXXX  XXXXXXXX   XXXXooXXXXooXX  XXoooXXXXX ",
"         .........XXXX    XXXXXXoXX   XXXXXXXXXoXX   XXoooXXXXX ",
"             ......      .XXXXXXoXXX  XXXXXXXXXXX    XXoooXXXX. ",
"                         .XXXXXXoXXX   XXXXXXXX      XXoooXXXX. ",
"                         .XXXXXXXoXX                 XXoooXXXX. ",
"       XXXXXXXXXXX       ..XXXXXXXXX                 XXoooXXXX. ",
"     XXXXXXXXXXXXXXXXX   ...XXXXXXXX  XXXX           XXooXXXXX. ",
"     XXXXooooXXXXXXXXXXX ....XXXXXX  XXXXXXX         XXooXXXX.. ",
"    XXXooooXXXXXXXXXXXXXX  .....XX   XXXXXXXX        XXooXXXX.. ",
"   XXXooooXXXXXXXXXXXXXXX            XXXXXXXX        XXooXXXX.. ",
"   XXoooXXXXXXXXXXXXXXXXXX    XX     XXXXXXXX        XXooXXXX.. ",
"  XXXooXXXXXXXXXXXXXXXXXXX   XXXXX   XXXXXXXX        XXooXXX..  ",
"  XXoooXXXXXXXXXXXXXXXXXXX   XXXXXX   XXXXX          XXoXXXX.X  ",
"  XXooooXXXXXXXXXXXXXXXXXX  XXXXXXXXX           .    XXXXXXX.   ",
"  XXoooooXXXXXXXXXXXXooooX  XXXXXXXXXX       ......  XXXXXXXX   ",
"  XXXoooXXXXXXXXXXXXoooooX  XXXXXXXXXXX     ......XX  XXXXXX    ",
"  XXXXXXXXXXXXXXXXXooooooX   XXoXXXXXXX    .......XX  XXXXXX    ",
"  .XXXXXXXXXXXXXXXXoooooXX   XXXXoooooX   X....XXXXXX XXXX      ",
"  ..XXXXXXXXXXXXXooooooXX     XXXXXXXXX  XXXXXXXXXXXX           ",
"  ....XXXXXXXXooooooooXXX                XXXXXXXXXXoXX          ",
"   ....XXXXXXoooooXXXXX                   XXXXXXooXXXX          ",
"    ......XXXXXXXXXXXX                     XXXXXXXXXXX          ",
"      ......XXXXXX                              XXXXX           ",
"                                                                ",
"                                                                "
};
