/* XPM */
static char *_14ca2d86e5d4a23c9bbcd1320799201wpk3J7TpWDC6KqA5[] = {
/* columns rows colors chars-per-pixel */
"64 64 3 1 ",
"  c #310F0F",
". c #451D1D",
"X c #522C2C",
/* pixels */
"                                                                ",
"                                                                ",
"..........XX  ....................................XXXXX  X......",
"....XXXXXXXX  XXXXX.XX...XXXXXXXXX.............XXXXXXXX  XXXXX..",
"XXXXXXXXXXXX  XXXXXXXXXXXXXXXXXXXXXXXXXXXXXXXXXXXXXXXXX  XXXXXXX",
"XXXXXXXXXXX.  XXXXXXXXXXXXXXXXXXXXXXXXXXXXXXXXXXXXXXXXX  .XXXXXX",
"XXXXXXXXXXX.  XXXXXXXXXXXXXXXXXXXXXXXXXXXXXXXXXXXXXXXXX  .XXXXXX",
"XXXXXXXXXXX.  XXXXXXXXXXXXXXXXXXXXXXXXXXXXXXXXXXXXXXXXX  XXXXXXX",
"XXXXXXXXXXXX  XXXXXXXXXXXXXXXXXXXXXXXXXXXXXXXXXXXXXXXXX  XXXXXXX",
"XXXXXXXXXXXX  XXXXXXXXXXXXXXXXXXXXXXXXXXXXXXXXXXXXXXXXX  XXXXXXX",
"XXXXXXXXXXX.  XXXXXXXXXXXXXXXXXXXXXXXXXXXXXXXXXXXXXXXXX  XXXXXXX",
"XXXXXXXXXXXX  XXXXXXXXXXXXXXXXXXXXXXXXXXXXXXXXXXXXXXXXX  .XXXXXX",
"XXXXXXXXXXX.  XXXXXXXXXXXXXXXXXXXXXXXXXXXXXXXXXXXXXXXXX  .XXXXXX",
"XXXXXXXXXXXX  .....XXXXXXXXXXXXXXXXXXXXXXXXXXXXXXXXXXXX  .XXXXXX",
"......XXXXXX  ...............XXXXXXXXXXXXXXXXXXXX...XXX  .......",
"............  ........................XXXXXXXXX........  .......",
"                                                                ",
"                                                                ",
"...............................X.  .............................",
"XXX.........................XXXX.  .XXXXX...................X.XX",
"XXXXXXXXXXXXXXX.........XXXXXXXX.  .XXXXXXXXXX....XXX.XXXXXXXXXX",
"XXXXXXXXXXXXXXXXXXXXXXXXXXXXXXXX.  .XXXXXXXXXXXXXXXXXXXXXXXXXXXX",
"XXXXXXXXXXXXXXXXXXXXXXXXXXXXXXXXX  .XXXXXXXXXXXXXXXXXXXXXXXXXXXX",
"XXXXXXXXXXXXXXXXXXXXXXXXXXXXXXXXX  .XXXXXXXXXXXXXXXXXXXXXXXXXXXX",
"XXXXXXXXXXXXXXXXXXXXXXXXXXXXXXXXX  .XXXXXXXXXXXXXXXXXXXXXXXXXXXX",
"XXXXXXXXXXXXXXXXXXXXXXXXXXXXXXXXX  .XXXXXXXXXXXXXXXXXXXXXXXXXXXX",
"XXXXXXXXXXXXXXXXXXXXXXXXXXXXXXXXX  .XXXXXXXXXXXXXXXXXXXXXXXXXXXX",
"XXXXXXXXXXXXXXXXXXXXXXXXXXXXXXXX.  XXXXXXXXXXXXXXXXXXXXXXXXXXXXX",
"XXXXXXXXXXXXXXXXXXXXXXXXXXXXXXXX.  .XXXXXXXXXXXXXXXXXXXXXXXXXXXX",
"XXXXXXXXXXXXXXXXXXXXXXXXXXXXXXXXX  .XXXXXXXXXXXXXXXXXXXXXXXXXXXX",
"XXXXXXXXXXXXXXXXXXXXXXXXXXXXXXXX.  XXXXXXXXXXXXXXXXXXXXXXXXXXXXX",
"XXXXXXXXXXXXXXXXXXXXXXXXXXXXXXXX.. XXXXXXXXXXXXXXXXXXXXXXXXXXXXX",
".....XXX......XXXXXXXXXXXX.......  ..XXX..XXXXXXXXXXXXXX........",
"...................XXXX..........  .............................",
"                                                                ",
"                                                                ",
".........XXX......X  XX.......................XXXXXX............",
"XX....X.XXXXXXXXXXX  XXXXX.................XXXXXXXXXXXXX......XX",
"XXXXXXXXXXXXXXXXXXX  XXXXXXXXXXXXXXXXXXXXXXXXXXXXXXXXXXXXXXXXXXX",
"XXXXXXXXXXXXXXXXXXX  XXXXXXXXXXXXXXXXXXXXXXXXXXXXXXXXXXXXXXXXXXX",
"XXXXXXXXXXXXXXXXXX.  XXXXXXXXXXXXXXXXXXXXXXXXXXXXXXXXXXXXXXXXXXX",
"XXXXXXXXXXXXXXXXXX.  XXXXXXXXXXXXXXXXXXXXXXXXXXXXXXXXXXXXXXXXXXX",
"XXXXXXXXXXXXXXXXXX.  XXXXXXXXXXXXXXXXXXXXXXXXXXXXXXXXXXXXXXXXXXX",
"XXXXXXXXXXXXXXXXXX.  XXXXXXXXXXXXXXXXXXXXXXXXXXXXXXXXXXXXXXXXXXX",
"XXXXXXXXXXXXXXXXXX.  .XXXXXXXXXXXXXXXXXXXXXXXXXXXXXXXXXXXXXXXXXX",
"XXXXXXXXXXXXXXXXXX.  XXXXXXXXXXXXXXXXXXXXXXXXXXXXXXXXXXXXXXXXXXX",
"XXXXXXXXXXXXXXXXXX.  .XXXXXXXXXXXXXXXXXXXXXXXXXXXXXXXXXXXXXXXXXX",
"XXXXXXXXXXXXXXXXX..  .XXXXXXXXXXXXXXXXXXXXXXXXXXXXXXXXXXXXXXXXXX",
"XXXXXXXXXXX........  .X.............XXXXXXX..X.X..............XX",
"XXXXXXX............  ...........................................",
"                                                                ",
"                                                                ",
"......................XXX.....XX.XXXXX..........................",
"....XXXXXXXXXXXXXXXXXXXXXXXXXXXXXXXXXXXXXXXXXXXXXXXXXXXXXXXXXX..",
"XXXXXXXXXXXXXXXXXXXXXXXXXXXXXXXXXXXXXXXXXXXXXXXXXXXXXXXXXXXXXXXX",
"XXXXXXXXXXXXXXXXXXXXXXXXXXXXXXXXXXXXXXXXXXXXXXXXXXXXXXXXXXXXXXXX",
"XXXXXXXXXXXXXXXXXXXXXXXXXXXXXXXXXXXXXXXXXXXXXXXXXXXXXXXXXXXXXXXX",
"XXXXXXXXXXXXXXXXXXXXXXXXXXXXXXXXXXXXXXXXXXXXXXXXXXXXXXXXXXXXXXXX",
"XXXXXXXXXXXXXXXXXXXXXXXXXXXXXXXXXXXXXXXXXXXXXXXXXXXXXXXXXXXXXXXX",
"XXXX..........XXXXXXXXXXXXXXXXXXXXXXXXXXXXXXX...........XXXXXXXX",
"X.....      ..............XXX......XXXXXX.....       .........XX",
"..                     .........  ........            ..........",
"                                                                ",
"                                                                "
};
