/* XPM */
static char *_dd9906162d2487ea214ffb61b1443591PGpzVOORVLyKCEp[] = {
/* columns rows colors chars-per-pixel */
"64 64 4 1 ",
"  c #927E43",
". c #9F8844",
"X c #B29B58",
"o c #BFAC75",
/* pixels */
"..........................   ...................................",
"......................X....  ...................................",
"...oooo..........XXXXXX....  ...oooXXXXXX..................XXX..",
".XXoooooooooooXXXXXXXXXX...  ..ooooXXXXXXXXXXXXXXXXXXXXXXXXXXXX.",
".XXoooooooooooXXXXXXXXXX...  ..ooooXXXXXXXXXXXXXXXXXXXXXXXXXXXX.",
".XXXXoooooooooXXXXXXXXXX...  ..oooXXXXXXXXXXXXXXXXXXXXXXXXXXXXX.",
"..XXXXXXXXXXXXXXXXXXXXXX...  ..oooXXXXXXXXXXXXXXXXXXXXXXXXXXXXX.",
"..XXXXXXXXXXXXXXXXXXXXXX...  ..oooXXXXXXXXXXXXXXXXXXXXXXXXXXXXX.",
"..XXXXXXXXXXXXXXXXXXXXX....  ..oooXXXXXXXXXXXXXXXXXXXXXXXXXXX...",
"..XXXXXXXXXXXXXXXXXXXXX....  ...XXXXXXXXXXXXXXXXXXXXXXXXXXXXX...",
"..XXXXXXXXXXXXXXXXXXXXX....  ...XXXXXXXXXXXXXXXXXXXXXXXXXXXXX...",
"..oooXXXXXXXXXXXXXXXXXX...  ....XXXXXXXXXXXXXXXXXXXXXXXXXXXXX...",
"..oooXXXXXXXXXXXXXXXXXX...  ....XXXXXXXXoooXXXXXXXXXXXXXXXXXX...",
"..oooXXXXXXXXXXXXXXXXXX...  ....XooooooooooXXXXXXXXoooooooooX...",
".ooooXXXXXXXXXXXXXXXXXX...  ...XXooooooooooXXX.....oooooooooX...",
".ooooXXXXXXXXXXXXXXXXXX...  .....ooooooooo.........oooooooooX...",
".oooXXXXXXXXXXXXXXXXXXX...   ...................................",
"..XXXXXXXXXXXXXXXXXXXXX...   ...................     ...........",
"..XXXXXXXXXXXXXXXXXXXXX...                              ........",
"..XXXXXXXXXXXXXXXXXXXXXXXX    ................               ...",
".XXXXXXXXXXXXXXXXXXXXXXX...  .........oo..........    ..........",
".XXXXXXXXXXXXXXXXXXXXXXX...  ...oooooooo..........   ...........",
".XXXXXXXXXXXXXXXXXXXXXXX...  ooooooooooooooX....... ............",
".......XXXXX...............  ooooooooooooooXXXX.... .....XXXXX..",
".......XXXXX...............  ..ooooooooXXXXXXXX.... ...ooXXXXX..",
".......     ...............   ....oooooXXXXXXXXX... ...ooXXXXX..",
"                              ....XooooXXXXXXXXX... ...ooXXXXX..",
"                     ........ ....ooooXXXXXXXXXX... ...ooXXXXX..",
".................. ........... ...oooXXXXXXXXXXX... ...oooXXXX..",
".................. ....oo..... ...oooXXXXXXXXXXX... ...XooXXXX..",
".......................ooX.... ....ooXXXXXXXXXX.... ...XooXXXX..",
"..ooooooXXXXXX........oooXX........XXXXXXXXXXXX.... ...XooXXXX..",
"..ooooooXXXXXX........ooXXX.... ...XXXXXXXXXXXX.... ...XooXXXX..",
".oooXXXXXXXXXX........ooXXX.... ...XXXXXXXXXXXX...  ...XooXXXX..",
".oooXXXXXXXXXXX.......ooXXXX... ..................  ...XooXXXX..",
"..XXXXXXXXXXXXXX......XXXXXX... ..................  ...XooXXXX..",
"..XXXXXXXXXXXXXX......XXXXXX... .................. ....XooXXXX..",
"..XXXXXXXXXXXXXX......XXXXXX...                    ....XoooXXX..",
"...XXXXXXXXXX........ooXXXXX...                    ....XXooXX...",
"...oo.XX.............ooXXXXX... .................. ...XXXooX....",
"...oo................ooXXXXX..........................XoooX.....",
"...............    ..ooXXXXX...........................oooX.....",
"    .................ooXXXXXX......XXXXXXXXXXXX.................",
".....................ooXXXXXX.......XXXXXXXXXXXXX...............",
".....................ooXXXXXX.......XXXXXXXXXXXXXX..............",
"...........XXXXX......XXXXXXX... ...XXXXXXXXXXXXX....     ......",
"..XooooooXXXXXXX......XXXXXXX... ..ooXXXXXXXXXXXX....  .........",
"..XooooooXXXXXX.......XXXXXXX... ..oooooooXXXXXXX...............",
"..oooooooXXXXXX.......XXXXXX.... ..oooooooXXXXXXX... ...........",
"..ooooooXXXXXXX................. ................... ..oooXXX...",
"..oooXXXXXXXXXX................  ................... ..ooooXX...",
".XoooXXXXXXXXXXX...............   .................. .oooooXXX..",
"..XXXXXXXXXXXXXX....... .....       .............    .ooXXXXXX..",
"..XXXXXXXXXXXXXX... ..........   .....................ooXXXXXX..",
"..XXXXXXXXXXXXXX...  .................................ooXXXXXX..",
"...oooXXXXXXXXXX...  ..............ooooooooXXX........oooXXXXX..",
"...oooXXXXXXXXXX...  ....Xoooo...ooooooooooXXXXXXX....oooXXXXX..",
"...ooXXXXXXXXXXX...   ...XooooooooooXXXXXXXXXXXXX.......XXXXX...",
"...ooXXXXXXXXXXX....  ...XXXoooooooXXXXXXXXXXXXXX.......XXXX....",
"...ooXXXXXXXXXXX....  ....XXXXXXXXXXXXXXXXXXXXXXX.......XXX.....",
"..XXXXXXXXXXXXXX....  ....XoooXXXXXXXXXXXXXXXXXXX... ...X.......",
"..XXXXXXXXXXXXXXX...   ...XoooXXXXXXXXXXXXXXXXXXX... ...........",
"....................   ...XXXXX.............XXXXX... ...........",
"....................   ............................. ..........."
};
