/* XPM */
static char *_b9e6170550f400b880546b9cd305528fk4dci9iU9Vay1sI[] = {
/* columns rows colors chars-per-pixel */
"64 64 4 1 ",
"  c black",
". c #304047",
"X c #346765",
"o c #368D72",
/* pixels */
"................................................................",
"................................................................",
"................................................................",
"................................................................",
"................................................................",
"................................................................",
"................................................................",
"ooXXXXooooooooooXXXXXXXXoooooooooo....XXooooooooooXXXXXXXXXXXXXX",
"ooXXXXooooooooooXXXXXXXXoooooooooo....XXooooooooooXXXXXXXXXXXXXX",
"oooooooooooooooooooooooooooooooooo..XXoooooooooooooooooooooooooo",
"oooooooooooooooooooooooooooooooooo..XXoooooooooooooooooooooooooo",
"ooooooooooooooooooooooooooooooooXX..XXoooooooooooooooooooooooooo",
"ooooooooooooooooooooooooooooooooXX..XXoooooooooooooooooooooooooo",
"ooooooooooooooooooooooooooooooXX....oooooooooooooooooooooooooooo",
"ooooooooooooooooooooooooooooooXX....oooooooooooooooooooooooooooo",
"XXXXXXXXooooooXXXXXXooooooXXXXXX....XXooooXXXXXXXXooooooooXXoooo",
"XXXXXXXXooooooXXXXXXooooooXXXXXX....XXooooXXXXXXXXooooooooXXoooo",
"................................................................",
"................................................................",
"ooooooooooooXX....ooooooXXXXXXXXXXXXXXXXXXXXooooooXXooXX....XXoo",
"ooooooooooooXX....ooooooXXXXXXXXXXXXXXXXXXXXooooooXXooXX....XXoo",
"ooooooooooooXX....oooooooooooooooooooooooooooooooooooooo..XXoooo",
"ooooooooooooXX....oooooooooooooooooooooooooooooooooooooo..XXoooo",
"ooooooooooooooXX..oooooooooooooooooooooooooooooooooooooo..oooooo",
"ooooooooooooooXX..oooooooooooooooooooooooooooooooooooooo..oooooo",
"oooooooooooooooo..XXoooooooooooooooooooooooooooooooooooo..oooooo",
"oooooooooooooooo..XXoooooooooooooooooooooooooooooooooooo..oooooo",
"oooooooooooooooo....XXooooooooooooooooooXXXXXXooooooXX....oooooo",
"oooooooooooooooo....XXooooooooooooooooooXXXXXXooooooXX....oooooo",
"................................................................",
"................................................................",
"ooXXooooXXXXooooXXXXXXXXoooooooo....ooooooooooXXooooooXXXXXXXXoo",
"ooXXooooXXXXooooXXXXXXXXoooooooo....ooooooooooXXooooooXXXXXXXXoo",
"oooooooooooooooooooooooooooooooo..oooooooooooooooooooooooooooooo",
"oooooooooooooooooooooooooooooooo..oooooooooooooooooooooooooooooo",
"oooooooooooooooooooooooooooooooo..oooooooooooooooooooooooooooooo",
"oooooooooooooooooooooooooooooooo..oooooooooooooooooooooooooooooo",
"oooooooooooooooooooooooooooooooo..XXXXoooooooooooooooooooooooooo",
"oooooooooooooooooooooooooooooooo..XXXXoooooooooooooooooooooooooo",
"oooooooooooooooooooooooooooooooo....XXoooooooooooooooooooooooooo",
"oooooooooooooooooooooooooooooooo....XXoooooooooooooooooooooooooo",
"XXXXXXooooooooooooooooXXooXXXXXX....XXXXXXXXXXXXXXoooooooooooooo",
"XXXXXXooooooooooooooooXXooXXXXXX....XXXXXXXXXXXXXXoooooooooooooo",
"................................................................",
"................................................................",
"XXooooXXooXXoooooo..ooooooooXXXXXXXXXXXXXXoo....XXooooXXXXXXXXoo",
"XXooooXXooXXoooooo..ooooooooXXXXXXXXXXXXXXoo....XXooooXXXXXXXXoo",
"oooooooooooooooooo..oooooooooooooooooooooooo....XXoooooooooooooo",
"oooooooooooooooooo..oooooooooooooooooooooooo....XXoooooooooooooo",
"oooooooooooooooooo..oooooooooooooooooooooooo..XXXXoooooooooooooo",
"oooooooooooooooooo..oooooooooooooooooooooooo..XXXXoooooooooooooo",
"oooooooooooooooooo..XXoooooooooooooooooooooo..XXoooooooooooooooo",
"oooooooooooooooooo..XXoooooooooooooooooooooo..XXoooooooooooooooo",
"ooooooooooooooXX....XXXXooooooooooooooooooXX..XXoooooooooooooooo",
"ooooooooooooooXX....XXXXooooooooooooooooooXX..XXoooooooooooooooo",
"ooooooooooooooXX....XXXXXXXXooooooooooooXXXX..XXooooooooooooXXXX",
"ooooooooooooooXX....XXXXXXXXooooooooooooXXXX..XXooooooooooooXXXX",
"................................................................",
"................................................................",
"................................................................",
"................................................................",
"................................................................",
"................................................................",
"................................................................",
"................................................................"
};
