/* XPM */
static char *e68c405e391c4e05acbd324c42eb755exLyAC33BxShjSbwJ[] = {
/* columns rows colors chars-per-pixel */
"64 64 4 1 ",
"  c #0F2631",
". c #1D3C45",
"X c #2C4352",
"o c #274952",
/* pixels */
"XXXXXXXXXXX                                          XXXXXXXXXXX",
"XXXXXXXXXXX                                          XXXXXXXXXXX",
"XXXXXXXXXXXXXX                                    XXXXXXXXXXXXXX",
"XXXXXXXXXXXXXXXXX                              XXXXXXXXXXXXXXXXX",
"XXXXXXXXXXXXXXXXX     . oo .....ooooo oo o     XXXXXXXXXXXXXXXXX",
"XXXXXXXXXXXXXXXXX     . .o .......ooo oo o     XXXXXXXXXXXXXXXXX",
"XXXXXXXXXXXXXXXXX     . .o.........oo.oo o     XXXXXXXXXXXXXXXXX",
"XXXXXXXXXXXXXXXXX     . .o.........oo.oo o     XXXXXXXXXXXXXXXXX",
"XXXXXXXXXXXXXXXXX     . .o..........o..o o     XXXXXXXXXXXXXXXXX",
"XXXXXXXXXXXXXXXXX     . .o..........o..o.o     XXXXXXXXXXXXXXXXX",
"XXXXXXXXXXXXXXXXX     . .o .........o... o     XXXXXXXXXXXXXXXXX",
"XXXXXXXXXXXXXXXXX     . .o .........o..o o     XXXXXXXXXXXXXXXXX",
"XXXXXXXXXXXXXXXXX     . .o .........o..o o     XXXXXXXXXXXXXXXXX",
"XXXXXXXXXXXXXXXXX     . .. ........oo..o..     XXXXXXXXXXXXXXXXX",
"XXXXXXXXXXXXXXXXX     . .. ........oo..o..     XXXXXXXXXXXXXXXXX",
"XXXXXXXXXXXXXXXXX     . .o.........oo..oo.     XXXXXXXXXXXXXXXXX",
"XXXXXXXXXXXXXXXXX     . ...........oo ..o.     XXXXXXXXXXXXXXXXX",
"XXXXXXXXXXXXXXXXX     . ............o ....     XXXXXXXXXXXXXXXXX",
"XXXXXXXXXXXXXXXXX     . ............. ..o.     XXXXXXXXXXXXXXXXX",
"XXXXXXXXXXXXXXXXX     . ............. ....     XXXXXXXXXXXXXXXXX",
"XXXXXXXXXXXXXXXXX     ....................     XXXXXXXXXXXXXXXXX",
"XXXXXXXXXXXXXXXXX     ....................     XXXXXXXXXXXXXXXXX",
"XXXXXXXXXXXXXXXXX     . ...............o .     XXXXXXXXXXXXXXXXX",
"XXXXXXXXXXXXXXXXX     o .o.............o .     XXXXXXXXXXXXXXXXX",
"XXXXXXXXXXXXXXXXX     o o. ........oo..o .     XXXXXXXXXXXXXXXXX",
"XXXXXXXXXXXXXXXXX     o oo ........oo..o .     XXXXXXXXXXXXXXXXX",
"XXXXXXXXXXXXXXXXX     ...o.........oo..o .     XXXXXXXXXXXXXXXXX",
"XXXXXXXXXXXXXXXXX     ...o.........oo .o .     XXXXXXXXXXXXXXXXX",
"XXXXXXXXXXXXXXXXX     ...o.........oo .o .     XXXXXXXXXXXXXXXXX",
"XXXXXXXXXXXXXXXXX     ...o.........oo .o .     XXXXXXXXXXXXXXXXX",
"XXXXXXXXXXXXXXXXX     ...o..........o .o .     XXXXXXXXXXXXXXXXX",
"XXXXXXXXXXXXXXXXX     ...o..........o .o .     XXXXXXXXXXXXXXXXX",
"XXXXXXXXXXXXXXXXX     ..............o... .     XXXXXXXXXXXXXXXXX",
"XXXXXXXXXXXXXXXXX     .... ............. .     XXXXXXXXXXXXXXXXX",
"XXXXXXXXXXXXXXXXX     .... ............. .     XXXXXXXXXXXXXXXXX",
"XXXXXXXXXXXXXXXXX     . .o ............. o     XXXXXXXXXXXXXXXXX",
"XXXXXXXXXXXXXXXXX     . .. ............. o     XXXXXXXXXXXXXXXXX",
"XXXXXXXXXXXXXXXXX     . .. ............. o     XXXXXXXXXXXXXXXXX",
"XXXXXXXXXXXXXXXXX     . .. ............. o     XXXXXXXXXXXXXXXXX",
"XXXXXXXXXXXXXXXXX     . .. ............. o     XXXXXXXXXXXXXXXXX",
"XXXXXXXXXXXXXXXXX     . .. ............. o     XXXXXXXXXXXXXXXXX",
"XXXXXXXXXXXXXXXXX     . .. ............. .     XXXXXXXXXXXXXXXXX",
"XXXXXXXXXXXXXXXXX     . .. ............. .     XXXXXXXXXXXXXXXXX",
"XXXXXXXXXXXXXXXXX     . .. .......... ....     XXXXXXXXXXXXXXXXX",
"XXXXXXXXXXXXXXXXX     . ............o ....     XXXXXXXXXXXXXXXXX",
"XXXXXXXXXXXXXXXXX     . ............o ...o     XXXXXXXXXXXXXXXXX",
"XXXXXXXXXXXXXXXXX     . ............o .. o     XXXXXXXXXXXXXXXXX",
"XXXXXXXXXXXXXXXXX     . ............o .. o     XXXXXXXXXXXXXXXXX",
"XXXXXXXXXXXXXXXXX     . ............. .. .     XXXXXXXXXXXXXXXXX",
"XXXXXXXXXXXXXXXXX     . ............. .. .     XXXXXXXXXXXXXXXXX",
"XXXXXXXXXXXXXXXXX     . ............. .. .     XXXXXXXXXXXXXXXXX",
"XXXXXXXXXXXXXXXXX     . ............o .o .     XXXXXXXXXXXXXXXXX",
"XXXXXXXXXXXXXXXXX     . ............. .o .     XXXXXXXXXXXXXXXXX",
"XXXXXXXXXXXXXXXXX     . ...............o .     XXXXXXXXXXXXXXXXX",
"XXXXXXXXXXXXXXXXX     . ...............o .     XXXXXXXXXXXXXXXXX",
"XXXXXXXXXXXXXXXXX     . .. ............o .     XXXXXXXXXXXXXXXXX",
"XXXXXXXXXXXXXXXXX     . .. ............o .     XXXXXXXXXXXXXXXXX",
"XXXXXXXXXXXXXXXXX     . .. ............o .     XXXXXXXXXXXXXXXXX",
"XXXXXXXXXXXXXXXXX     . .. o............ .     XXXXXXXXXXXXXXXXX",
"XXXXXXXXXXXXXXXXX       .. oo........ ..       XXXXXXXXXXXXXXXXX",
"XXXXXXXXXXXXXXXXX          .o........          XXXXXXXXXXXXXXXXX",
"XXXXXXXXXXXXXX                                    XXXXXXXXXXXXXX",
"XXXXXXXXXXX                                          XXXXXXXXXXX",
"XXXXXXXXXXX                                          XXXXXXXXXXX"
};
